<svg xmlns="http://www.w3.org/2000/svg" xmlns:xlink="http://www.w3.org/1999/xlink" fill="none" version="1.1" width="200" height="200" viewBox="0 0 200 200"><defs><clipPath id="master_svg0_26_077"><rect x="0" y="0" width="200" height="200" rx="0"/></clipPath></defs><g clip-path="url(#master_svg0_26_077)"><path d="M168.75,100C168.75,62.030422,137.96957,31.25,100,31.25C62.030422,31.25,31.25,62.030422,31.25,100C31.25,137.96957,62.030422,168.75,100,168.75C137.96957,168.75,168.75,137.96957,168.75,100ZM12.5,100C12.5,51.675083,51.675083,12.5,100,12.5C148.32492,12.5,187.5,51.675083,187.5,100C187.5,148.32492,148.32492,187.5,100,187.5C51.675083,187.5,12.5,148.32492,12.5,100Z" fill="#DDD5E1" fill-opacity="1" style="mix-blend-mode:passthrough"/><path d="M87.5,62.497593C87.5,55.5953636,93.0483093,50,100,50C106.903557,50,112.5,55.5464592,112.5,62.497593L112.5,100.002403C112.5,106.90464,106.951691,112.5,100,112.5C93.0964432,112.5,87.5,106.95354499999999,87.5,100.002403L87.5,62.497593ZM87.5,137.5C87.5,130.59643599999998,93.0483093,125,100,125C106.903557,125,112.5,130.54830900000002,112.5,137.5C112.5,144.40356400000002,106.951691,150,100,150C93.0964432,150,87.5,144.45169099999998,87.5,137.5Z" fill="#DDD5E1" fill-opacity="1" style="mix-blend-mode:passthrough"/></g></svg>