<svg xmlns="http://www.w3.org/2000/svg" xmlns:xlink="http://www.w3.org/1999/xlink" fill="none" version="1.1" width="200" height="200" viewBox="0 0 200 200"><defs><clipPath id="master_svg0_26_080"><rect x="0" y="0" width="200" height="200" rx="0"/></clipPath></defs><g clip-path="url(#master_svg0_26_080)"><path d="M85.5,18L115.5,18Q122.767502,18,128.564995,22.1925006Q134.3625,26.3850021,136.70999999999998,33.000002L145.5,33.000002Q154.815,33.000002,161.4075,39.592503Q168,46.185002999999995,168,55.500004L168,160.5Q168,169.815,161.4075,176.4075Q154.815,183,145.5,183L55.5,183Q46.185001,183,39.5925007,176.4075Q33,169.815,33,160.5L33,55.499996Q33,46.184998,39.5925007,39.592495Q46.185001,32.999995,55.5,32.999995L64.289999,32.999995Q66.629997,26.377493899999997,72.43499800000001,22.1924939Q78.239994,18.0074938778,85.5,18ZM145.5,48.000004000000004L136.70999999999998,48.000004000000004Q134.37,54.622505,128.564995,58.807507Q122.760002,62.992508,115.5,63.000004L85.50000800000001,63.000004Q78.23250999999999,63.000004,72.435013,58.807507Q66.637512,54.615005,64.290012,48.000008L55.500012999999996,48.000008Q52.395012,48.000008,50.197514,50.197506Q48.000014,52.395004,48.000014,55.500008L48.000014,160.50002Q48.000014,163.60501,50.197514,165.80251Q52.395012,168.00002,55.500012999999996,168.00002L145.50001,168.00002Q148.60501,168.00002,150.80250999999998,165.80251Q153.00001,163.60501,153.00001,160.50002L153.00001,55.500008Q153.00001,52.395008,150.80250999999998,50.19751Q148.60501,48.00001,145.5,48.000004000000004ZM115.499992,33.000002L85.49999199999999,33.000002Q82.39499699999999,33.000002,80.197498,35.197500000000005Q78,37.394999999999996,78,40.5Q78,43.605001,80.197498,45.802502000000004Q82.39499699999999,48,85.49999199999999,48L115.499992,48Q118.604988,48,120.802483,45.802502000000004Q122.999985,43.605001,122.999985,40.5Q122.999985,37.394999999999996,120.802483,35.197500000000005Q118.604988,33.000002,115.499992,33.000002Z" fill="#DDD5E1" fill-opacity="1" style="mix-blend-mode:passthrough"/></g></svg>