<svg xmlns="http://www.w3.org/2000/svg" xmlns:xlink="http://www.w3.org/1999/xlink" fill="none" version="1.1" width="200" height="200" viewBox="0 0 200 200"><defs><clipPath id="master_svg0_26_075"><rect x="0" y="0" width="200" height="200" rx="0"/></clipPath></defs><g clip-path="url(#master_svg0_26_075)"><path d="M54.16249876293945,37.49999976293945C63.37499976293945,37.49999976293945,70.83749376293946,44.96250176293945,70.83749376293946,54.16249876293945L70.83749376293946,70.83749376293946L54.16249876293945,70.83749376293946C44.956599762939454,70.83749376293946,37.49374776293945,63.374641762939454,37.49374776293945,54.16874276293945C37.49374776293945,44.962844762939454,44.956599762939454,37.499992762939456,54.16249876293945,37.49999976293945ZM87.50000376293946,70.83750176293945L87.50000376293946,54.16249876293945C87.50000376293946,35.750705762939454,72.57429476293945,20.825000762939453,54.162502762939454,20.825000762939453C35.75070976293945,20.825000762939453,20.825000762939453,35.75070976293945,20.825000762939453,54.162502762939454C20.825000762939453,72.57429476293945,35.750705762939454,87.50000376293946,54.16249876293945,87.50000376293946L70.83749376293946,87.50000376293946L70.83749376293946,112.50000376293946L54.16249876293945,112.50000376293946C35.750705762939454,112.50000376293946,20.825000762939453,127.42571076293946,20.825000762939453,145.83750076293944C20.825000762939453,164.24930076293944,35.75070976293945,179.17501076293945,54.162502762939454,179.17501076293945C72.57429476293945,179.17501076293945,87.50000376293946,164.24930076293944,87.50000376293946,145.83750076293944L87.50000376293946,129.16249076293946L112.50000376293946,129.16249076293946L112.50000376293946,145.83750076293944C112.50000376293946,164.24930076293944,127.42571076293946,179.17501076293945,145.83750076293944,179.17501076293945C164.24930076293944,179.17501076293945,179.17501076293945,164.24930076293944,179.17501076293945,145.83750076293944C179.17501076293945,127.42571076293946,164.24930076293944,112.50000376293946,145.83750076293944,112.50000376293946L129.16249076293946,112.50000376293946L129.16249076293946,87.50000376293946L145.83750076293944,87.50000376293946C164.24930076293944,87.50000376293946,179.17501076293945,72.57429476293945,179.17501076293945,54.162502762939454C179.17501076293945,35.75070976293945,164.24930076293944,20.825000762939453,145.83750076293944,20.825000762939453C127.42571076293946,20.825000762939453,112.50000376293946,35.750705762939454,112.50000376293946,54.16249876293945L112.50000376293946,70.83749376293946L87.50000376293946,70.83750176293945ZM87.50000376293946,87.50000376293946L112.50000376293946,87.50000376293946L112.50000376293946,112.50000376293946L87.50000376293946,112.50000376293946L87.50000376293946,87.50000376293946ZM129.16251076293946,70.83750176293945L129.16251076293946,54.16249876293945C129.16941076293944,44.96330976293945,136.62998076293945,37.51019676293946,145.82917076293944,37.51249676293945C155.02835076293945,37.514793762939455,162.48520076293946,44.971633762939454,162.48751076293945,54.17082576293945C162.48981076293944,63.370017762939455,155.03670076293946,70.83058976293945,145.83751076293947,70.83749376293946L129.16251076293946,70.83750176293945ZM129.16251076293946,129.16251076293946L145.83751076293947,129.16251076293946C155.03670076293946,129.16941076293944,162.48981076293944,136.62998076293945,162.48751076293945,145.82917076293944C162.48520076293946,155.02837076293946,155.02835076293945,162.48520076293946,145.82917076293944,162.48751076293945C136.62998076293945,162.48981076293944,129.16942076293947,155.03670076293946,129.16251076293946,145.83751076293947L129.16251076293946,129.16251076293946ZM70.83750876293945,129.16251076293946L70.83750876293945,145.83751076293947C70.83060476293946,155.03670076293946,63.37003376293945,162.48981076293944,54.170840762939456,162.48751076293945C44.97164876293945,162.48520076293946,37.51480876293945,155.02835076293945,37.512511762939454,145.82917076293944C37.51021176293945,136.62998076293945,44.96332176293946,129.16941076293944,54.16250976293945,129.16251076293946L70.83750876293945,129.16251076293946Z" fill="#DDD5E1" fill-opacity="1" style="mix-blend-mode:passthrough"/></g></svg>