<svg xmlns="http://www.w3.org/2000/svg" xmlns:xlink="http://www.w3.org/1999/xlink" fill="none" version="1.1" width="200" height="200" viewBox="0 0 200 200"><defs><clipPath id="master_svg0_26_082"><rect x="0" y="0" width="200" height="200" rx="0"/></clipPath></defs><g clip-path="url(#master_svg0_26_082)"><path d="M158.20000068115235,83.19999723706054L158.20000068115235,66.79166423706054L141.79166068115234,66.79166423706054L141.79166068115234,83.19999723706054L158.20000068115235,83.19999723706054ZM158.20000068115235,108.19999323706055L158.20000068115235,91.79166423706054L141.79166068115234,91.79166423706054L141.79166068115234,108.19999323706055L158.20000068115235,108.19999323706055ZM133.20000068115235,83.19999723706054L133.20000068115235,66.79166423706054L116.79166368115234,66.79166423706054L116.79166368115234,83.19999723706054L133.20000068115235,83.19999723706054ZM133.20000068115235,108.19999323706055L133.20000068115235,91.79166423706054L116.79166368115234,91.79166423706054L116.79166368115234,108.19999323706055L133.20000068115235,108.19999323706055ZM133.20000068115235,141.79999923706055L133.20000068115235,124.99999623706054L66.79166368115234,124.99999623706054L66.79166368115234,141.79999923706055L133.20000068115235,141.79999923706055ZM58.200000681152346,83.19999723706054L58.200000681152346,66.79166423706054L41.79166768115235,66.79166423706054L41.79166768115235,83.19999723706054L58.200000681152346,83.19999723706054ZM58.200000681152346,108.19999323706055L58.200000681152346,91.79166423706054L41.79166768115235,91.79166423706054L41.79166768115235,108.19999323706055L58.200000681152346,108.19999323706055ZM66.80000268115234,91.80000323706054L66.80000268115234,108.20833923706054L83.20833568115235,108.20833923706054L83.20833568115235,91.80000323706054L66.80000268115234,91.80000323706054ZM66.80000268115234,66.80000323706055L66.80000268115234,83.20833623706055L83.20833568115235,83.20833623706055L83.20833568115235,66.80000323706055L66.80000268115234,66.80000323706055ZM91.80000268115235,91.80000323706054L91.80000268115235,108.20833923706054L108.20833568115235,108.20833923706054L108.20833568115235,91.80000323706054L91.80000268115235,91.80000323706054ZM91.80000268115235,66.80000323706055L91.80000268115235,83.20833623706055L108.20833568115235,83.20833623706055L108.20833568115235,66.80000323706055L91.80000268115235,66.80000323706055ZM166.80001068115234,41.79999923706055Q173.44167068115235,41.79999923706055,178.32500068115235,46.68333433706054Q183.20834068115235,51.56666943706055,183.20834068115235,58.20833623706055L183.20834068115235,141.79999923706055Q183.20834068115235,148.44165923706055,178.32500068115235,153.32498923706055Q173.44167068115235,158.20832923706055,166.80001068115234,158.20832923706055L33.20834368115234,158.20832923706055Q26.566677081152342,158.20832923706055,21.683343881152343,153.32498923706055Q16.800010681152344,148.44165923706055,16.800010681152344,141.79999923706055L16.800010681152344,58.20833623706055Q16.800010681152344,51.56666943706055,21.683343881152343,46.68333433706054Q26.566677081152342,41.79999923706055,33.20834368115234,41.80000305175785L166.80001068115234,41.79999923706055Z" fill="#DDD5E1" fill-opacity="1" style="mix-blend-mode:passthrough"/></g></svg>