<svg xmlns="http://www.w3.org/2000/svg" xmlns:xlink="http://www.w3.org/1999/xlink" fill="none" version="1.1" width="200" height="200" viewBox="0 0 200 200"><defs><clipPath id="master_svg0_26_088"><rect x="0" y="0" width="200" height="200" rx="0"/></clipPath></defs><g clip-path="url(#master_svg0_26_088)"><path d="M100.41983,30.527242C61.821224,30.527242,30.530879,61.810257,30.530879,100.399818C30.530879,139.24899,59.37949,169.47275,97.717453,169.47275L97.74852,169.47275C97.383537,168.85164,96.971962,168.21504,96.537102,167.51631L96.381798,167.26788C93.27562,162.32245,90.86834,155.88641,91.310966,148.82928C91.769127,141.51594,95.232513,134.42001,102.291298,128.51963999999998C110.305237,121.81963,119.86449,121.6566,127.28047,121.94386C128.95006,122.01373,130.51868000000002,122.09912,132.00187,122.17675C137.88808,122.49506,142.54734000000002,122.75127,147.12119,121.51685C161.50278,117.63504,169.49341,108.085793,170.32431,95.718338C172.81703,58.63155,140.14006,30.527242,100.41983,30.527242ZM15,100.399818C15,53.235832,53.244785,15,100.41983,15C146.47665,15,189.0856,48.274872,185.82413,96.750916C184.48071,116.67237,171.00768,131.15151,151.16698,136.50065999999998C143.9296,138.4571,136.16413,137.99903999999998,130.13815,137.64967000000001C128.89569,137.57205,127.73088,137.50215,126.667,137.46336C119.5461,137.18385999999998,115.40711,137.7972,112.262108,140.4213C108.169716,143.84506,106.981613,147.09802,106.810776,149.79974C106.624405,152.74992,107.633911,155.9796,109.528671,158.99963L109.738335,159.33348C110.483826,160.52132,111.570984,162.23708,112.471779,164.03047C113.403633,165.88597,114.630577,168.7197,114.723755,171.89502C114.909409,176.08234,112.834465,180.04755,109.287941,182.28273C105.987633,184.41772,101.840881,185,97.717438,185C50.293919,184.99998,15,147.30762,15,100.399818ZM82.947586,61.612774C82.947586,53.037315,89.901009,46.085535,98.47847,46.085535C107.055923,46.085535,114.009346,53.037315,114.009346,61.612774C114.009346,70.188236,107.055923,77.14000300000001,98.47847,77.14000300000001C89.901009,77.14000300000001,82.947586,70.188236,82.947586,61.612774ZM46.294722,84.903633C46.294727,76.32817800000001,53.248135,69.37639999999999,61.825603,69.37639999999999C70.403065,69.37639999999999,77.356476,76.32817800000001,77.356476,84.903633C77.356476,93.479088,70.403065,100.43087,61.825603,100.43087C53.248135,100.43087,46.294727,93.479088,46.294722,84.903633ZM119.97321,84.903633C119.97321,76.32817800000001,126.92662,69.37639999999999,135.5041,69.37639999999999C144.08156,69.37639999999999,151.03499,76.32817800000001,151.03497,84.903633C151.03499,93.479088,144.08156,100.43087,135.5041,100.43087C126.92662,100.43087,119.97321,93.479088,119.97321,84.903633Z" fill="#DDD5E1" fill-opacity="1" style="mix-blend-mode:passthrough"/></g></svg>