<svg xmlns="http://www.w3.org/2000/svg" xmlns:xlink="http://www.w3.org/1999/xlink" fill="none" version="1.1" width="200" height="200" viewBox="0 0 200 200"><defs><clipPath id="master_svg0_26_084"><rect x="0" y="0" width="200" height="200" rx="0"/></clipPath><clipPath id="master_svg1_26_085"><rect x="0" y="0" width="200" height="200" rx="0"/></clipPath></defs><g clip-path="url(#master_svg0_26_084)"><g clip-path="url(#master_svg1_26_085)"><path d="M99.9000016772461,36.650001524414066C128.8875016772461,19.275001524414062,156.7749816772461,15.350002324414064,170.6125116772461,29.20000072441406C184.4625216772461,43.03749852441406,180.5250216772461,70.92500352441405,163.1625016772461,99.89999352441406C180.5375016772461,128.88749752441407,184.4625216772461,156.77499752441406,170.6125116772461,170.61248752441406C156.7750216772461,184.46249752441406,128.8875116772461,180.52499752441406,99.9000016772461,163.16248752441408C70.92500267724608,180.53748752441408,43.025001677246095,184.46249752441406,29.187499977246095,170.61248752441406C15.350000377246094,156.77499752441406,19.274999577246092,128.88747752441407,36.650001677246095,99.89998652441406C19.275001477246093,70.92498752441406,15.350002277246094,43.02498652441406,29.187501877246092,29.199989324414062C43.037502677246096,15.349988924414063,70.9374996772461,19.274990124414064,99.9000016772461,36.650001524414066ZM47.124999677246095,115.32499652441406C44.450000677246095,120.47499852441406,42.29999967724609,125.44999752441406,40.72499867724609,130.17500752441407C34.96249767724609,147.48750752441407,38.09999867724609,155.92500752441407,40.999999677246095,158.82499752441407C43.887500677246095,161.72498752441408,52.337501677246095,164.86250752441407,69.6500016772461,159.08749752441406C74.7559126772461,157.34629752441407,79.71703367724609,155.20637752441405,84.48750267724608,152.68749752441406C77.45993067724609,147.33582752441407,70.8030246772461,141.51415752441406,64.5624996772461,135.26249752441407C58.306217677246096,129.01827752441406,52.4803656772461,122.35717752441407,47.124999677246095,115.32499652441406ZM152.7000016772461,115.32499652441406C147.3482016772461,122.35640752441407,141.5265616772461,129.01746752441406,135.27499167724608,135.26249752441407C128.7999916772461,141.72498752441408,122.0999916772461,147.55000752441407,115.33749367724609,152.68749752441406C120.48749567724609,155.37499752441406,125.46249167724609,157.52499752441406,130.18750167724608,159.08749752441406C147.50000167724608,164.86248752441406,155.9500016772461,161.71249752441406,158.8500016772461,158.83749752441406C161.7375116772461,155.93749752441406,164.8749916772461,147.48748752441406,159.1000016772461,130.17498752441406C157.3599216772461,125.06461752441406,155.2199616772461,120.09925852441407,152.7000016772461,115.32499652441406ZM99.9000016772461,56.499999524414065C91.4788356772461,62.40811952441406,83.59423067724609,69.04624952441407,76.3375016772461,76.33750152441407C69.0463566772461,83.59431452441406,62.408233677246095,91.47891252441406,56.499999677246095,99.90000152441407C61.999999677246095,107.77500152441407,68.6249996772461,115.74999952441406,76.3375016772461,123.47500752441407C83.5947566772461,130.76189752441405,91.4793476772461,137.39582752441407,99.9000016772461,143.30000752441407C107.7750016772461,137.81249752441406,115.7625046772461,131.19999752441407,123.4750016772461,123.47500752441407C130.7626216772461,116.21391252441406,137.3965716772461,108.32510352441406,143.3000016772461,99.90000952441406C137.3958416772461,91.47935452441406,130.7619016772461,83.59475752441406,123.4750016772461,76.33750952441406C116.21430967724609,69.04570052441406,108.3255006772461,62.407546524414066,99.9000016772461,56.499999524414065ZM85.1750026772461,85.17500352441407C93.25990267724609,76.75228852441407,106.68651567724609,76.61492152441406,114.9420466772461,84.87046052441406C123.19758167724609,93.12599152441406,123.06022167724609,106.55260452441406,114.6375046772461,114.63750452441407C106.45503967724609,122.49179752441407,93.4934466772461,122.35918752441407,85.4733806772461,114.33912652441406C77.4533156772461,106.31906852441406,77.3207096772461,93.35747552441406,85.1750026772461,85.17500352441407ZM102.85000567724609,96.96250152441407C101.2245866772461,95.33457152441406,98.58690667724609,95.33354952441407,96.9602276772461,96.96022752441407C95.3335566772461,98.58691452441406,95.3345796772461,101.22458652441406,96.96250867724609,102.84999852441406C98.5886616772461,104.47364852441406,101.22283167724609,104.47263352441406,102.8477326772461,102.84773252441406C104.4726336772461,101.22283152441406,104.47364767724609,98.58866152441406,102.85000567724609,96.96250152441407ZM69.63750467724608,40.712501524414066C52.3250046772461,34.950000524414065,43.8875046772461,38.087501524414066,40.9875026772461,40.975002524414066C38.087501677246095,43.87500352441406,34.95000467724609,52.312499524414065,40.712501677246095,69.63750452441406C42.287502677246096,74.35000652441406,44.437499677246095,79.33750152441407,47.1125026772461,84.47500652441406C52.2500036772461,77.72500652441406,58.087501677246095,71.01250452441406,64.55000267724608,64.55000352441405C70.7902376772461,58.29419352441406,77.4471516772461,52.46835352441406,84.47500567724609,47.112503524414066C79.7047116772461,44.593254524414064,74.74356867724609,42.453315524414066,69.63750467724608,40.712501524414066ZM158.8374816772461,40.975002524414066C155.9374916772461,38.087501524414066,147.4874916772461,34.950000524414065,130.1749916772461,40.725002524414066C125.0650316772461,42.461162524414064,120.0996856772461,44.59692752441406,115.3249896772461,47.112503524414066C122.08748167724609,52.25000352441406,128.7874916772461,58.087501524414066,135.26248167724611,64.55000352441405C141.7249716772461,71.01250452441406,147.5499916772461,77.71250152441407,152.6874916772461,84.47500652441406C155.3749916772461,79.33750952441406,157.5249816772461,74.35000652441406,159.0874816772461,69.63750452441406C164.86248167724608,52.31250352441406,161.7249716772461,43.87500352441406,158.8374816772461,40.975002524414066Z" fill="#DDD5E1" fill-opacity="1" style="mix-blend-mode:passthrough"/></g></g></svg>