<svg xmlns="http://www.w3.org/2000/svg" xmlns:xlink="http://www.w3.org/1999/xlink" fill="none" version="1.1" width="200" height="200" viewBox="0 0 200 200"><defs><clipPath id="master_svg0_26_073"><rect x="0" y="0" width="200" height="200" rx="0"/></clipPath></defs><g clip-path="url(#master_svg0_26_073)"><path d="M108.88571071624756,11.357142448165527C121.88571071624756,11.357142448165527,132.45714071624758,21.91428540716553,132.45714071624758,34.92856840716553L132.45714071624758,168.27142640716554C132.45833071624756,182.99527640716553,119.11028071624756,194.11635640716554,104.62856971624755,191.45714640716554L44.914282716247556,180.50000640716553C26.93736271624756,177.20331640716552,13.882479667647559,161.53384640716553,13.885711669921879,143.25714640716552L13.885711669921879,60.32857040716553C13.881312370347558,42.14401940716553,26.80694371624756,26.525299407165527,44.67142371624756,23.128570407165526L104.48571671624755,11.771428107165526C105.93572171624756,11.491047857165528,107.40886571624756,11.347559928865527,108.88571871624755,11.342856407165527L108.88571071624756,11.357142448165527ZM157.14285071624755,33.571429407165525C177.12076071624756,33.56894240716552,193.66205071624756,49.09086540716553,194.92856071624755,69.02857140716553L195.00000071624757,71.42857240716552L195.00000071624757,142.85715640716552C195.00249071624756,162.83504640716552,179.48057071624757,179.37633640716552,159.54286071624756,180.64285640716554L157.14285071624755,180.71428640716553L142.85713071624755,180.71428640716553L142.85713071624755,162.14285640716554L157.14285071624755,162.14285640716554C167.07622071624755,162.14487640716553,175.38631071624755,154.60149640716554,176.34285071624757,144.71428640716553L176.42856071624755,142.85713640716554L176.42856071624755,71.42857240716552C176.43057071624756,61.49520440716553,168.88719071624755,53.18511140716553,158.99998071624756,52.228571407165525L157.14285071624755,52.14285540716553L142.85713071624755,52.14285540716553L142.85713071624755,33.57142540716553L157.14285071624755,33.571429407165525ZM108.88571071624756,29.92857240716553L107.94285471624755,30.014288407165527L48.14285571624756,41.371428407165524C39.03881771624756,43.10125240716553,32.452135716247554,51.06165940716553,32.45714071624756,60.328574407165526L32.45714071624756,143.25714640716552C32.45714071624756,152.57143640716552,39.09999771624756,160.54286640716552,48.25713971624756,162.22858640716552L107.97142671624756,173.18571640716553C110.68534771624756,173.68985640716554,113.29436371624756,171.89935640716553,113.80000171624756,169.18571640716553L113.88572071624756,168.27142640716554L113.88572071624756,34.92856840716553C113.88572071624756,32.167143407165526,111.64713971624757,29.92856840716553,108.88571071624756,29.92857240716553ZM81.21428571624756,98.12856940716553L82.52857071624756,98.97142740716552L112.19999571624756,165.04285640716552L110.88571071624756,167.05713640716553L97.99999871624756,167.05713640716553L96.69999571624756,166.19998640716554L86.04285371624756,141.9142664071655L61.15714171624756,142.11426640716553L54.614283716247556,155.34283640716552L53.32857071624756,156.14284640716554L40.52857071624756,156.14284640716554L39.242857716247556,154.11427640716553L64.71428571624756,98.97141940716553L65.99999871624756,98.12856240716553L81.22856771624755,98.12856240716553L81.21428571624756,98.12856940716553ZM162.14285071624755,132.85714640716554C167.27121071624757,132.85714640716554,171.42857071624755,137.01450640716553,171.42857071624755,142.14287640716552C171.42857071624755,147.27123640716553,167.27121071624757,151.42857640716554,162.14285071624755,151.42857640716554L152.14285071624755,151.42857640716554C147.01449071624756,151.42857640716554,142.85713071624755,147.27123640716553,142.85713071624755,142.14287640716552C142.85713071624755,137.01450640716553,147.01449071624756,132.85714640716554,152.14285071624755,132.85714640716554L162.14285071624755,132.85714640716554ZM74.91428271624756,111.54285640716553L72.29999471624757,111.55713640716553L64.91428271624756,128.3285664071655L66.21428571624756,130.3285664071655L81.21428571624756,130.3285664071655L82.52857071624756,128.31428640716553L74.91428271624756,111.54285640716553ZM162.14285071624755,104.28571240716553C167.27121071624757,104.28571240716553,171.42857071624755,108.44306840716553,171.42857071624755,113.57142640716553C171.42857071624755,118.69978640716553,167.27121071624757,122.85713640716553,162.14285071624755,122.85713640716553L152.14285071624755,122.85713640716553C147.01449071624756,122.85713640716553,142.85713071624755,118.69978640716553,142.85713071624755,113.57142640716553C142.85713071624755,108.44306840716553,147.01449071624756,104.28571240716553,152.14285071624755,104.28571240716553L162.14285071624755,104.28571240716553ZM162.14285071624755,75.71428540716553C167.27475071624755,75.70928140716553,171.43764071624756,79.86810240716552,171.43764071624756,85.00000640716553C171.43764071624756,90.13190340716552,167.27475071624755,94.29072440716553,162.14285071624755,94.28571240716553L152.14285071624755,94.28571240716553C147.01095071624755,94.29071740716553,142.84807071624755,90.13190340716552,142.84807071624755,85.00000640716553C142.84807071624755,79.86810240716552,147.01095071624755,75.70928140716553,152.14285071624755,75.71428540716553L162.14285071624755,75.71428540716553ZM76.51428171624755,42.21428540716553C88.05713571624756,43.357142407165526,96.92856471624756,52.74285840716553,97.61427971624755,64.02857140716553L97.64285171624756,66.17143140716553C98.36392871624756,78.64146340716553,88.69668471624756,89.26898140716553,76.21427871624755,89.72857540716552C64.23030771624755,88.46718540716553,55.14846671624756,78.33577640716553,55.19999971624756,66.28571240716553C54.853434716247556,54.81391040716553,62.84393971624756,44.76991140716553,74.09999771624756,42.52857140716553L76.21428571624756,42.21428540716553L76.49999871624756,42.21428540716553L76.51428171624755,42.21428540716553ZM76.37142071624756,56.08571540716553C72.49999171624756,56.08571540716553,69.62856171624756,59.94285840716553,69.62856171624756,65.68571340716554C69.62856171624756,70.32857440716552,71.49999171624756,73.77143040716552,74.19998871624756,74.88571040716553L75.22856071624756,75.18571340716554L76.48570171624756,75.30000240716552L76.84284071624757,75.67143140716553L77.49998371624756,75.61428740716553C80.44283971624756,74.97142740716552,82.67141671624756,71.81428440716553,83.12855471624756,67.40000040716552L83.21427071624755,65.68571340716554C83.21427071624755,59.97142740716553,80.27141471624756,56.08571540716553,76.35713071624755,56.08571540716553L76.37142071624756,56.08571540716553Z" fill="#DDD5E1" fill-opacity="1" style="mix-blend-mode:passthrough"/></g></svg>